PathFileType	3	(X/Y/Z)	squats_1__view1_aligned.trc
DataRate	CameraRate	NumFrames	NumMarkers	Units	OrigDataRate	OrigDataStartFrame	OrigNumFrames
100.0	100.0	7	19	mm	100.0	966	1660
Frame#	Time	pelvis			neck			head			hip_left			hip_right			knee_left			knee_right			ankle_left			ankle_right			heel_left			heel_right			toe_left			toe_right			shoulder_left			shoulder_right			elbow_left			elbow_right			wrist_left			wrist_right			
		X1	Y1	Z1	X2	Y2	Z2	X3	Y3	Z3	X4	Y4	Z4	X5	Y5	Z5	X6	Y6	Z6	X7	Y7	Z7	X8	Y8	Z8	X9	Y9	Z9	X10	Y10	Z10	X11	Y11	Z11	X12	Y12	Z12	X13	Y13	Z13	X14	Y14	Z14	X15	Y15	Z15	X16	Y16	Z16	X17	Y17	Z17	X18	Y18	Z18	X19	Y19	Z19	
966	9.65000	70.471943	932.637165	107.555811	47.344415	1495.725880	-62.407537	34.753829	1640.953590	-184.123582	-7.895155	936.672262	113.930948	148.839243	928.602066	101.180530	-101.246293	523.970173	21.818596	188.019261	509.193021	-7.877996	-138.242688	138.240686	155.487321	210.279812	113.443707	95.824814	-131.147270	93.066805	194.772577	211.294294	71.578628	138.603150	-195.970748	72.521674	-23.021306	207.183874	20.453940	-83.856082	-136.264966	1425.786901	-1.328415	240.799098	1440.967720	-24.590512	-228.460540	1154.159649	71.971655	325.152690	1156.083209	2.962443	-213.345590	1042.967539	-167.424609	342.659943	1039.792746	-231.665796
967	9.66000	67.843042	935.304887	105.996072	45.942082	1500.393342	-59.038655	33.638793	1646.416444	-179.806238	-10.477879	939.318696	112.275737	146.164163	931.291074	99.716260	-102.523807	524.423358	26.513193	185.394274	509.939892	-3.170423	-140.248872	137.493466	157.880276	208.130756	113.135209	98.421291	-133.238661	92.143255	197.008303	209.109909	71.086823	141.049345	-197.574547	72.099145	-21.063928	205.475746	20.353682	-81.527724	-137.571671	1430.462569	1.916202	239.194220	1445.296212	-21.424846	-230.130624	1158.552518	74.446631	323.797182	1160.135462	4.460057	-217.449248	1047.441058	-165.462295	341.997088	1045.370677	-231.115717
968	9.67000	65.214142	937.972608	104.436333	44.539748	1505.060804	-55.669772	32.523757	1651.879297	-175.488894	-13.060602	941.965131	110.620526	143.489084	933.980082	98.251990	-103.801322	524.876543	31.207791	182.769286	510.686762	1.537150	-142.255055	136.746245	160.273231	205.981701	112.826710	101.017768	-135.330052	91.219704	199.244028	206.925524	70.595018	143.495540	-199.178346	71.676617	-19.106549	203.767618	20.253424	-79.199366	-138.878376	1435.138237	5.160819	237.589342	1449.624704	-18.259179	-231.800709	1162.945388	76.921608	322.441674	1164.187715	5.957671	-221.552906	1051.914578	-163.499981	341.334232	1050.948608	-230.565638
969	9.68000	62.585241	940.640329	102.876594	43.137415	1509.728266	-52.300890	31.408720	1657.342151	-171.171550	-15.643325	944.611565	108.965315	140.814004	936.669090	96.787720	-105.078836	525.329728	35.902388	180.144299	511.433633	6.244723	-144.261239	135.999025	162.666186	203.832645	112.518211	103.614245	-137.421443	90.296154	201.479754	204.741139	70.103213	145.941735	-200.782145	71.254088	-17.149171	202.059490	20.153166	-76.871008	-140.185080	1439.813906	8.405436	235.984464	1453.953197	-15.093513	-233.470793	1167.338257	79.396585	321.086166	1168.239967	7.455285	-225.656564	1056.388097	-161.537667	340.671376	1056.526539	-230.015560
970	9.69000	59.956341	943.308051	101.316854	41.735081	1514.395728	-48.932008	30.293684	1662.805005	-166.854206	-18.226048	947.257999	107.310105	138.138924	939.358099	95.323451	-106.356351	525.782913	40.596985	177.519311	512.180504	10.952296	-146.267422	135.251804	165.059141	201.683590	112.209712	106.210722	-139.512835	89.372604	203.715479	202.556754	69.611408	148.387930	-202.385945	70.831559	-15.191793	200.351362	20.052908	-74.542651	-141.491785	1444.489574	11.650053	234.379586	1458.281689	-11.927846	-235.140878	1171.731127	81.871561	319.730659	1172.292220	8.952900	-229.760222	1060.861616	-159.575353	340.008521	1062.104470	-229.465481
971	9.70000	57.327441	945.975772	99.757115	40.332748	1519.063190	-45.563126	29.178648	1668.267858	-162.536862	-20.808771	949.904433	105.654894	135.463844	942.047107	93.859181	-107.633865	526.236098	45.291583	174.894324	512.927374	15.659869	-148.273606	134.504584	167.452096	199.534534	111.901213	108.807199	-141.604226	88.449053	205.951205	200.372368	69.119602	150.834124	-203.989744	70.409030	-13.234414	198.643234	19.952650	-72.214293	-142.798490	1449.165242	14.894671	232.774708	1462.610181	-8.762179	-236.810962	1176.123996	84.346538	318.375151	1176.344473	10.450514	-233.863880	1065.335135	-157.613039	339.345665	1067.682401	-228.915402
972	9.71000	54.698540	948.643493	98.197376	38.930414	1523.730653	-42.194244	28.063612	1673.730712	-158.219518	-23.391494	952.550867	103.999683	132.788764	944.736115	92.394911	-108.911380	526.689283	49.986180	172.269336	513.674245	20.367442	-150.279790	133.757363	169.845051	197.385479	111.592714	111.403676	-143.695617	87.525503	208.186930	198.187983	68.627797	153.280319	-205.593543	69.986501	-11.277036	196.935106	19.852392	-69.885935	-144.105194	1453.840910	18.139288	231.169830	1466.938673	-5.596513	-238.481047	1180.516865	86.821515	317.019643	1180.396726	11.948128	-237.967537	1069.808654	-155.650724	338.682809	1073.260332	-228.365323
